<svg xmlns="http://www.w3.org/2000/svg" width="357" height="323" viewBox="0 0 357 323">
  <defs>
    <linearGradient id="fill-1-a" x1="100%" x2="1.022%" y1="0%" y2="98.978%">
      <stop offset="0%" stop-color="#FFA476"/>
      <stop offset="100%" stop-color="#FF5991"/>
    </linearGradient>
  </defs>
  <path fill="#FFF" fill-opacity=".01" fill-rule="evenodd" stroke="url(#fill-1-a)" stroke-width="1.5" d="M177.515742,320.495139 C171.237324,320.495139 164.958906,319.048479 159.110642,316.145042 L159.110642,316.145042 C8.2913218,241.20198 0.402114107,131.488494 0.402114107,109.555913 C0.310591976,107.613545 0.264830911,105.812807 0.264830911,104.072768 C0.264830911,46.965103 42.2917935,0.5 93.9651887,0.5 C129.887625,0.5 161.755631,22.8271244 177.442524,56.960209 C193.13857,22.8372409 225.006576,0.510116504 260.929012,0.510116504 C312.593255,0.510116504 354.62937,46.985336 354.62937,104.103118 C354.62937,105.843156 354.583609,107.694477 354.492087,109.596379 C354.501239,122.494922 352.167425,156.172764 330.915986,195.586664 C304.557612,244.489844 259.089418,285.067142 195.783559,316.215858 C189.971904,319.068712 183.748399,320.495139 177.515742,320.495139 L177.515742,320.495139 Z" opacity=".51" transform="translate(1 1)"/>
</svg>
